# MagicaVoxel @ Ephtracy

# material
mtllib kompukter_3.mtl
usemtl palette

# normals
vn -1 0 0
vn 1 0 0
vn 0 0 1
vn 0 0 -1
vn 0 -1 0
vn 0 1 0

# texcoords
vt 0.0332031 0.5
vt 0.0605469 0.5
vt 0.962891 0.5
vt 0.974609 0.5
vt 0.986328 0.5

# verts
v -12 0 12
v -12 0 -9
v -12 21 12
v -12 21 -9
v -9 7 12
v -9 7 11
v -9 16 12
v -9 16 11
v -8 6 12
v -8 6 11
v -8 7 12
v -8 7 11
v -8 16 12
v -8 16 11
v -8 17 12
v -8 17 11
v -7 5 12
v -7 5 11
v -7 6 12
v -7 6 11
v -7 17 12
v -7 17 11
v -7 18 12
v -7 18 11
v 7 4 12
v 7 4 11
v 7 19 12
v 7 19 11
v 8 4 13
v 8 4 12
v 8 5 13
v 8 5 12
v 8 8 13
v 8 8 12
v 8 9 13
v 8 9 12
v 11 4 13
v 11 4 12
v 11 5 13
v 11 5 12
v 13 6 12
v 13 6 11
v 13 8 12
v 13 8 11
v 13 14 12
v 13 14 11
v 13 15 12
v 13 15 11
v 13 16 12
v 13 16 11
v 13 17 12
v 13 17 11
v 13 18 12
v 13 18 11
v 13 19 12
v 13 19 11
v -10 4 12
v -10 4 11
v -10 19 12
v -10 19 11
v 4 5 12
v 4 5 11
v 4 6 12
v 4 6 11
v 4 17 12
v 4 17 11
v 4 18 12
v 4 18 11
v 5 6 12
v 5 6 11
v 5 7 12
v 5 7 11
v 5 16 12
v 5 16 11
v 5 17 12
v 5 17 11
v 6 7 12
v 6 7 11
v 6 16 12
v 6 16 11
v 8 6 12
v 8 6 11
v 8 7 12
v 8 7 11
v 8 14 12
v 8 14 11
v 8 15 12
v 8 15 11
v 8 16 12
v 8 16 11
v 8 17 12
v 8 17 11
v 8 18 12
v 8 18 11
v 8 19 12
v 8 19 11
v 10 4 13
v 10 4 12
v 10 5 13
v 10 5 12
v 10 8 13
v 10 8 12
v 10 9 13
v 10 9 12
v 11 7 12
v 11 7 11
v 11 8 12
v 11 8 11
v 13 4 13
v 13 4 12
v 13 5 13
v 13 5 12
v 14 0 12
v 14 0 -9
v 14 21 12
v 14 21 -9
v 8 4 13
v 8 5 13
v 8 8 13
v 8 9 13
v 10 4 13
v 10 5 13
v 10 8 13
v 10 9 13
v 11 4 13
v 11 5 13
v 13 4 13
v 13 5 13
v -12 0 12
v -12 21 12
v -10 4 12
v -10 19 12
v -9 7 12
v -9 16 12
v -8 6 12
v -8 7 12
v -8 16 12
v -8 17 12
v -7 5 12
v -7 6 12
v -7 15 12
v -7 16 12
v -7 17 12
v -7 18 12
v -5 13 12
v -5 14 12
v -5 15 12
v -5 16 12
v -4 13 12
v -4 14 12
v -3 15 12
v -3 16 12
v 2 15 12
v 2 16 12
v 4 5 12
v 4 6 12
v 4 17 12
v 4 18 12
v 5 6 12
v 5 7 12
v 5 16 12
v 5 17 12
v 6 7 12
v 6 16 12
v 7 4 12
v 7 19 12
v 8 4 12
v 8 5 12
v 8 6 12
v 8 7 12
v 8 8 12
v 8 9 12
v 8 14 12
v 8 15 12
v 8 16 12
v 8 17 12
v 8 18 12
v 8 19 12
v 10 4 12
v 10 5 12
v 10 8 12
v 10 9 12
v 11 4 12
v 11 5 12
v 11 7 12
v 11 8 12
v 13 4 12
v 13 5 12
v 13 6 12
v 13 8 12
v 13 14 12
v 13 15 12
v 13 16 12
v 13 17 12
v 13 18 12
v 13 19 12
v 14 0 12
v 14 21 12
v -10 4 11
v -10 19 11
v -9 7 11
v -9 16 11
v -8 6 11
v -8 7 11
v -8 16 11
v -8 17 11
v -7 5 11
v -7 6 11
v -7 17 11
v -7 18 11
v 4 5 11
v 4 6 11
v 4 17 11
v 4 18 11
v 5 6 11
v 5 7 11
v 5 16 11
v 5 17 11
v 6 7 11
v 6 16 11
v 7 4 11
v 7 19 11
v 8 6 11
v 8 7 11
v 8 14 11
v 8 15 11
v 8 16 11
v 8 17 11
v 8 18 11
v 8 19 11
v 11 7 11
v 11 8 11
v 13 6 11
v 13 8 11
v 13 14 11
v 13 15 11
v 13 16 11
v 13 17 11
v 13 18 11
v 13 19 11
v -12 0 -9
v -12 21 -9
v 14 0 -9
v 14 21 -9
v -12 0 12
v 14 0 12
v -12 0 -9
v 14 0 -9
v 8 4 13
v 10 4 13
v 11 4 13
v 13 4 13
v 8 4 12
v 10 4 12
v 11 4 12
v 13 4 12
v -7 5 12
v 4 5 12
v -7 5 11
v 4 5 11
v -8 6 12
v -7 6 12
v 4 6 12
v 5 6 12
v -8 6 11
v -7 6 11
v 4 6 11
v 5 6 11
v -9 7 12
v -8 7 12
v 5 7 12
v 6 7 12
v 8 7 12
v 11 7 12
v -9 7 11
v -8 7 11
v 5 7 11
v 6 7 11
v 8 7 11
v 11 7 11
v 8 8 13
v 10 8 13
v 8 8 12
v 10 8 12
v 11 8 12
v 13 8 12
v 11 8 11
v 13 8 11
v 8 15 12
v 13 15 12
v 8 15 11
v 13 15 11
v 8 17 12
v 13 17 12
v 8 17 11
v 13 17 11
v -10 19 12
v 7 19 12
v 8 19 12
v 13 19 12
v -10 19 11
v 7 19 11
v 8 19 11
v 13 19 11
v -10 4 12
v 7 4 12
v -10 4 11
v 7 4 11
v 8 5 13
v 10 5 13
v 11 5 13
v 13 5 13
v 8 5 12
v 10 5 12
v 11 5 12
v 13 5 12
v 8 6 12
v 13 6 12
v 8 6 11
v 13 6 11
v 8 9 13
v 10 9 13
v 8 9 12
v 10 9 12
v 8 14 12
v 13 14 12
v 8 14 11
v 13 14 11
v -9 16 12
v -8 16 12
v 5 16 12
v 6 16 12
v 8 16 12
v 13 16 12
v -9 16 11
v -8 16 11
v 5 16 11
v 6 16 11
v 8 16 11
v 13 16 11
v -8 17 12
v -7 17 12
v 4 17 12
v 5 17 12
v -8 17 11
v -7 17 11
v 4 17 11
v 5 17 11
v -7 18 12
v 4 18 12
v 8 18 12
v 13 18 12
v -7 18 11
v 4 18 11
v 8 18 11
v 13 18 11
v -12 21 12
v 14 21 12
v -12 21 -9
v 14 21 -9

# faces
f 3/1/1 2/1/1 1/1/1
f 4/1/1 2/1/1 3/1/1
f 7/5/1 6/5/1 5/5/1
f 8/5/1 6/5/1 7/5/1
f 11/5/1 10/5/1 9/5/1
f 12/5/1 10/5/1 11/5/1
f 15/5/1 14/5/1 13/5/1
f 16/5/1 14/5/1 15/5/1
f 19/5/1 18/5/1 17/5/1
f 20/5/1 18/5/1 19/5/1
f 23/5/1 22/5/1 21/5/1
f 24/5/1 22/5/1 23/5/1
f 27/1/1 26/1/1 25/1/1
f 28/1/1 26/1/1 27/1/1
f 31/4/1 30/4/1 29/4/1
f 32/4/1 30/4/1 31/4/1
f 35/4/1 34/4/1 33/4/1
f 36/4/1 34/4/1 35/4/1
f 39/4/1 38/4/1 37/4/1
f 40/4/1 38/4/1 39/4/1
f 43/1/1 42/1/1 41/1/1
f 44/1/1 42/1/1 43/1/1
f 47/1/1 46/1/1 45/1/1
f 48/1/1 46/1/1 47/1/1
f 51/1/1 50/1/1 49/1/1
f 52/1/1 50/1/1 51/1/1
f 55/1/1 54/1/1 53/1/1
f 56/1/1 54/1/1 55/1/1
f 57/1/2 58/1/2 59/1/2
f 59/1/2 58/1/2 60/1/2
f 61/5/2 62/5/2 63/5/2
f 63/5/2 62/5/2 64/5/2
f 65/5/2 66/5/2 67/5/2
f 67/5/2 66/5/2 68/5/2
f 69/5/2 70/5/2 71/5/2
f 71/5/2 70/5/2 72/5/2
f 73/5/2 74/5/2 75/5/2
f 75/5/2 74/5/2 76/5/2
f 77/5/2 78/5/2 79/5/2
f 79/5/2 78/5/2 80/5/2
f 81/1/2 82/1/2 83/1/2
f 83/1/2 82/1/2 84/1/2
f 85/1/2 86/1/2 87/1/2
f 87/1/2 86/1/2 88/1/2
f 89/1/2 90/1/2 91/1/2
f 91/1/2 90/1/2 92/1/2
f 93/1/2 94/1/2 95/1/2
f 95/1/2 94/1/2 96/1/2
f 97/4/2 98/4/2 99/4/2
f 99/4/2 98/4/2 100/4/2
f 101/4/2 102/4/2 103/4/2
f 103/4/2 102/4/2 104/4/2
f 105/1/2 106/1/2 107/1/2
f 107/1/2 106/1/2 108/1/2
f 109/4/2 110/4/2 111/4/2
f 111/4/2 110/4/2 112/4/2
f 113/1/2 114/1/2 115/1/2
f 115/1/2 114/1/2 116/1/2
f 121/4/3 118/4/3 117/4/3
f 122/4/3 118/4/3 121/4/3
f 123/4/3 120/4/3 119/4/3
f 124/4/3 120/4/3 123/4/3
f 127/4/3 126/4/3 125/4/3
f 128/4/3 126/4/3 127/4/3
f 131/1/3 130/1/3 129/1/3
f 132/1/3 130/1/3 131/1/3
f 136/5/3 134/5/3 133/5/3
f 137/5/3 134/5/3 136/5/3
f 140/5/3 136/5/3 135/5/3
f 140/5/3 138/5/3 137/5/3
f 140/5/3 137/5/3 136/5/3
f 141/5/3 138/5/3 140/5/3
f 142/5/3 138/5/3 141/5/3
f 143/5/3 138/5/3 142/5/3
f 145/5/3 140/5/3 139/5/3
f 145/5/3 141/5/3 140/5/3
f 146/5/3 141/5/3 145/5/3
f 147/3/3 142/3/3 141/3/3
f 147/5/3 141/5/3 146/5/3
f 148/5/3 144/5/3 143/5/3
f 148/3/3 142/3/3 147/3/3
f 148/5/3 143/5/3 142/5/3
f 149/5/3 145/5/3 139/5/3
f 149/3/3 146/3/3 145/3/3
f 150/5/3 147/5/3 146/5/3
f 150/3/3 146/3/3 149/3/3
f 150/5/3 148/5/3 147/5/3
f 151/5/3 150/5/3 149/5/3
f 151/5/3 148/5/3 150/5/3
f 152/5/3 144/5/3 148/5/3
f 152/5/3 148/5/3 151/5/3
f 153/5/3 151/5/3 149/5/3
f 153/3/3 152/3/3 151/3/3
f 154/5/3 144/5/3 152/5/3
f 154/3/3 152/3/3 153/3/3
f 155/5/3 149/5/3 139/5/3
f 155/5/3 153/5/3 149/5/3
f 155/5/3 154/5/3 153/5/3
f 156/5/3 154/5/3 155/5/3
f 157/5/3 144/5/3 154/5/3
f 157/5/3 154/5/3 156/5/3
f 158/5/3 144/5/3 157/5/3
f 159/5/3 157/5/3 156/5/3
f 160/5/3 157/5/3 159/5/3
f 161/5/3 157/5/3 160/5/3
f 162/5/3 157/5/3 161/5/3
f 163/5/3 161/5/3 160/5/3
f 164/5/3 161/5/3 163/5/3
f 165/1/3 131/1/3 129/1/3
f 166/1/3 130/1/3 132/1/3
f 167/1/3 165/1/3 129/1/3
f 167/1/3 166/1/3 165/1/3
f 168/1/3 166/1/3 167/1/3
f 169/1/3 166/1/3 168/1/3
f 170/1/3 166/1/3 169/1/3
f 171/1/3 166/1/3 170/1/3
f 172/1/3 166/1/3 171/1/3
f 173/1/3 166/1/3 172/1/3
f 174/1/3 166/1/3 173/1/3
f 175/1/3 166/1/3 174/1/3
f 176/1/3 166/1/3 175/1/3
f 177/1/3 166/1/3 176/1/3
f 178/1/3 130/1/3 166/1/3
f 178/1/3 166/1/3 177/1/3
f 179/1/3 167/1/3 129/1/3
f 180/1/3 169/1/3 168/1/3
f 181/1/3 171/1/3 170/1/3
f 182/1/3 173/1/3 172/1/3
f 183/1/3 179/1/3 129/1/3
f 183/1/3 180/1/3 179/1/3
f 184/1/3 169/1/3 180/1/3
f 184/1/3 180/1/3 183/1/3
f 185/1/3 182/1/3 181/1/3
f 185/1/3 181/1/3 170/1/3
f 186/1/3 182/1/3 185/1/3
f 187/1/3 183/1/3 129/1/3
f 188/1/3 169/1/3 184/1/3
f 189/1/3 169/1/3 188/1/3
f 190/1/3 182/1/3 186/1/3
f 191/1/3 173/1/3 182/1/3
f 191/1/3 182/1/3 190/1/3
f 192/1/3 175/1/3 174/1/3
f 193/1/3 175/1/3 192/1/3
f 194/1/3 177/1/3 176/1/3
f 195/1/3 177/1/3 194/1/3
f 196/1/3 130/1/3 178/1/3
f 197/1/3 193/1/3 192/1/3
f 197/1/3 196/1/3 195/1/3
f 197/1/3 195/1/3 194/1/3
f 197/1/3 191/1/3 190/1/3
f 197/1/3 194/1/3 193/1/3
f 197/1/3 187/1/3 129/1/3
f 197/1/3 192/1/3 191/1/3
f 197/1/3 189/1/3 188/1/3
f 197/1/3 190/1/3 189/1/3
f 197/1/3 188/1/3 187/1/3
f 198/1/3 130/1/3 196/1/3
f 198/1/3 196/1/3 197/1/3
f 201/4/3 200/4/3 199/4/3
f 202/4/3 200/4/3 201/4/3
f 203/4/3 201/4/3 199/4/3
f 204/4/3 201/4/3 203/4/3
f 205/4/3 200/4/3 202/4/3
f 206/4/3 200/4/3 205/4/3
f 207/4/3 203/4/3 199/4/3
f 208/4/3 203/4/3 207/4/3
f 209/4/3 200/4/3 206/4/3
f 210/4/3 200/4/3 209/4/3
f 211/4/3 207/4/3 199/4/3
f 214/4/3 200/4/3 210/4/3
f 215/4/3 212/4/3 211/4/3
f 218/4/3 214/4/3 213/4/3
f 219/4/3 216/4/3 215/4/3
f 220/4/3 218/4/3 217/4/3
f 221/4/3 219/4/3 215/4/3
f 221/4/3 220/4/3 219/4/3
f 221/4/3 211/4/3 199/4/3
f 221/4/3 215/4/3 211/4/3
f 222/4/3 218/4/3 220/4/3
f 222/4/3 220/4/3 221/4/3
f 222/4/3 200/4/3 214/4/3
f 222/4/3 214/4/3 218/4/3
f 231/2/3 224/2/3 223/2/3
f 233/2/3 231/2/3 223/2/3
f 233/2/3 232/2/3 231/2/3
f 234/2/3 232/2/3 233/2/3
f 235/2/3 226/2/3 225/2/3
f 236/2/3 226/2/3 235/2/3
f 237/2/3 228/2/3 227/2/3
f 238/2/3 228/2/3 237/2/3
f 239/2/3 230/2/3 229/2/3
f 240/2/3 230/2/3 239/2/3
f 241/1/4 242/1/4 243/1/4
f 243/1/4 242/1/4 244/1/4
f 247/1/5 246/1/5 245/1/5
f 248/1/5 246/1/5 247/1/5
f 253/4/5 250/4/5 249/4/5
f 254/4/5 250/4/5 253/4/5
f 255/4/5 252/4/5 251/4/5
f 256/4/5 252/4/5 255/4/5
f 259/5/5 258/5/5 257/5/5
f 260/5/5 258/5/5 259/5/5
f 265/5/5 262/5/5 261/5/5
f 266/5/5 262/5/5 265/5/5
f 267/5/5 264/5/5 263/5/5
f 268/5/5 264/5/5 267/5/5
f 275/5/5 270/5/5 269/5/5
f 276/5/5 270/5/5 275/5/5
f 277/5/5 272/5/5 271/5/5
f 278/5/5 272/5/5 277/5/5
f 279/1/5 274/1/5 273/1/5
f 280/1/5 274/1/5 279/1/5
f 283/4/5 282/4/5 281/4/5
f 284/4/5 282/4/5 283/4/5
f 287/1/5 286/1/5 285/1/5
f 288/1/5 286/1/5 287/1/5
f 291/1/5 290/1/5 289/1/5
f 292/1/5 290/1/5 291/1/5
f 295/1/5 294/1/5 293/1/5
f 296/1/5 294/1/5 295/1/5
f 301/1/5 298/1/5 297/1/5
f 302/1/5 298/1/5 301/1/5
f 303/1/5 300/1/5 299/1/5
f 304/1/5 300/1/5 303/1/5
f 305/1/6 306/1/6 307/1/6
f 307/1/6 306/1/6 308/1/6
f 309/4/6 310/4/6 313/4/6
f 313/4/6 310/4/6 314/4/6
f 311/4/6 312/4/6 315/4/6
f 315/4/6 312/4/6 316/4/6
f 317/1/6 318/1/6 319/1/6
f 319/1/6 318/1/6 320/1/6
f 321/4/6 322/4/6 323/4/6
f 323/4/6 322/4/6 324/4/6
f 325/1/6 326/1/6 327/1/6
f 327/1/6 326/1/6 328/1/6
f 329/5/6 330/5/6 335/5/6
f 335/5/6 330/5/6 336/5/6
f 331/5/6 332/5/6 337/5/6
f 337/5/6 332/5/6 338/5/6
f 333/1/6 334/1/6 339/1/6
f 339/1/6 334/1/6 340/1/6
f 341/5/6 342/5/6 345/5/6
f 345/5/6 342/5/6 346/5/6
f 343/5/6 344/5/6 347/5/6
f 347/5/6 344/5/6 348/5/6
f 349/5/6 350/5/6 353/5/6
f 353/5/6 350/5/6 354/5/6
f 351/1/6 352/1/6 355/1/6
f 355/1/6 352/1/6 356/1/6
f 357/1/6 358/1/6 359/1/6
f 359/1/6 358/1/6 360/1/6
